PathFileType	4	(X/Y/Z)	C:\Users\Basilio\Documents\Thesis Gigler\squatting_fais\c3dfiles\077\SLS_back_pre1\markers_experimental.trc
DataRate	CameraRate	NumFrames	NumMarkers	Units	OrigDataRate	OrigDataStartFrame	OrigNumFrames
200.000000	200.000000	4	60	mm	200.000000	794	1588
Frame#	Time	FHD			RBHD			C7			T10			CLAV			LSHO			LUUPA			LMUPA			LDUPA			LLEP			LMEP			LRAD			LUL			LRFIN			RSHO			RUPA1			RMUPA			RDUPA			RLEP			RMEP			RRAD			RUL			RUFIN			LASI			RASI			USACR			LSACR			RSACR			LTHI1			LTHI2			LTHI3			LTHI4			LLFC			LMFC			LTIB1			LTIB2			LTIB3			LTIB4			LLMAL			LHEE			LMT1			LMT2			LMT5			RTHI			RTHI2			RTHI3			RTHI4			RLFC			RMFC			RTIB1			RTIB2			RTIB3			RTIB4			RLMAL			RMMAL			RHEE			RMT1			RMT2			RMT5			LBHD			
		X1	Y1	Z1	X2	Y2	Z2	X3	Y3	Z3	X4	Y4	Z4	X5	Y5	Z5	X6	Y6	Z6	X7	Y7	Z7	X8	Y8	Z8	X9	Y9	Z9	X10	Y10	Z10	X11	Y11	Z11	X12	Y12	Z12	X13	Y13	Z13	X14	Y14	Z14	X15	Y15	Z15	X16	Y16	Z16	X17	Y17	Z17	X18	Y18	Z18	X19	Y19	Z19	X20	Y20	Z20	X21	Y21	Z21	X22	Y22	Z22	X23	Y23	Z23	X24	Y24	Z24	X25	Y25	Z25	X26	Y26	Z26	X27	Y27	Z27	X28	Y28	Z28	X29	Y29	Z29	X30	Y30	Z30	X31	Y31	Z31	X32	Y32	Z32	X33	Y33	Z33	X34	Y34	Z34	X35	Y35	Z35	X36	Y36	Z36	X37	Y37	Z37	X38	Y38	Z38	X39	Y39	Z39	X40	Y40	Z40	X41	Y41	Z41	X42	Y42	Z42	X43	Y43	Z43	X44	Y44	Z44	X45	Y45	Z45	X46	Y46	Z46	X47	Y47	Z47	X48	Y48	Z48	X49	Y49	Z49	X50	Y50	Z50	X51	Y51	Z51	X52	Y52	Z52	X53	Y53	Z53	X54	Y54	Z54	X55	Y55	Z55	X56	Y56	Z56	X57	Y57	Z57	X58	Y58	Z58	X59	Y59	Z59	X60	Y60	Z60	

795	3.97	-31.72141456604005	1515.289428710938	-1115.541748046875	-175.6487274169922	1402.918701171875	-1034.695678710938	-222.8968200683594	1307.977416992188	-1113.575927734375	-390.0633544921876	1045.887451171875	-1046.26806640625	-89.3372268676758	1198.799682617188	-1103.908081054688	-91.31439208984376	1246.917846679688	-1270.421142578125	53.95584106445314	1170.828369140625	-1376.97705078125	88.20851898193361	1195.385375976563	-1350.447143554688	120.6714248657227	1156.359252929688	-1384.519287109375	186.8144836425782	1156.226928710938	-1381.226318359375	181.5741882324219	1085.431518554688	-1350.864135742188	478.9276123046876	1143.670654296875	-1263.660522460938	485.8893432617189	1148.772583007813	-1343.193969726563	576.8049926757814	1165.122314453125	-1270.331909179688	-82.8590774536133	1266.54052734375	-958.4043579101565	62.91054534912111	1217.808471679688	-839.4239501953127	93.69673156738283	1234.308227539063	-873.8719482421877	131.8659820556641	1205.43701171875	-836.1474609375002	197.6674041748047	1199.336303710938	-845.098083496094	188.5129547119141	1122.814331054688	-865.589050292969	476.8072509765626	1162.901123046875	-955.1016235351565	491.4310913085939	1182.440307617188	-877.1782836914065	570.6595458984376	1184.981323242188	-958.974792480469	nan	nan	nan	-340.1432495117188	782.0607910156252	-912.5324707031252	-458.2280273437501	970.5424804687502	-1031.479125976563	-483.3811340332032	958.4534912109377	-1062.721069335938	-484.1318359375001	944.6882324218752	-1007.974487304688	-327.0398864746094	690.6458129882814	-1263.1396484375	-249.6818847656251	654.2290039062501	-1261.599609375	-215.6018524169922	688.1865844726564	-1252.595825195313	-235.885238647461	596.2295532226564	-1253.300537109375	-122.3633651733399	496.1246337890626	-1215.882690429688	-112.5474243164063	495.9717102050782	-1087.563720703125	-162.2139587402344	297.2456054687501	-1103.898681640625	-212.9967346191407	256.6662597656251	-1166.669677734375	-187.0172271728516	250.3790588378907	-1129.716186523438	-227.6746978759766	192.2372283935547	-1082.0791015625	-333.3689575195313	103.7454528808594	-1109.945678710938	-398.1700744628907	83.12537384033205	-1048.574340820313	-183.7823333740235	57.44531250000001	-1073.206909179688	-193.6420593261719	39.64347076416016	-1119.677734375	-301.2094421386719	126.6332626342774	-1028.020629882813	-444.9693298339845	502.5906982421876	-839.0296020507815	-404.6285705566407	444.6961975097657	-833.3609008789065	-371.5858764648438	443.4212341308595	-838.7769165039065	-439.9971008300782	372.2750244140626	-844.4807739257815	-456.627899169922	340.6384582519532	-851.1840820312502	-441.2317810058595	303.1911621093751	-977.6140747070315	-578.7080078125001	318.3728332519532	-899.8050537109377	-637.5292968750001	406.558807373047	-880.7993774414065	-651.4445190429689	367.6973571777344	-902.898864746094	-681.7108154296876	380.5540466308594	-953.0000610351565	-830.279479980469	506.3471679687501	-946.918640136719	-810.8154907226565	477.9476013183595	-1032.9912109375	-811.4235839843752	576.8077392578126	-1000.441772460938	-943.8194580078127	398.6260681152345	-1043.842041015625	-955.5418090820315	401.4944152832032	-1003.334411621094	-980.792175292969	429.8823852539064	-964.4707641601565	-173.8250427246094	1405.16650390625	-1180.226684570313	
796	3.975	-31.51088333129884	1515.082397460938	-1115.426635742188	-175.3120422363282	1401.76904296875	-1033.793334960938	-222.5588684082032	1307.655517578125	-1113.416015625	-389.9460754394532	1045.710327148438	-1046.146850585938	-89.22074127197267	1198.2998046875	-1103.800415039063	-90.96707916259767	1246.533325195313	-1270.200805664063	54.2273406982422	1170.448974609375	-1376.89599609375	88.61911010742189	1194.902709960938	-1350.233154296875	121.234001159668	1155.861083984375	-1384.386474609375	187.0918731689453	1155.72607421875	-1381.159423828125	181.9080505371094	1084.901733398438	-1350.791137695313	479.3246459960939	1143.144165039063	-1263.571655273438	486.412078857422	1148.209350585938	-1343.088745117188	577.5243530273439	1165.36181640625	-1270.169677734375	-82.71432495117189	1266.058349609375	-958.2434082031252	63.17831802368165	1217.466796875	-839.0563964843752	93.87292480468751	1233.814208984375	-873.6611938476565	131.9256439208985	1204.848022460938	-835.9882812500002	197.7349090576172	1198.549926757813	-844.9128417968752	188.5768127441407	1122.025512695313	-865.4407958984377	476.8296508789064	1162.20263671875	-954.845886230469	491.2074584960939	1181.714721679688	-877.4295654296877	570.7560424804689	1184.134521484375	-958.9800415039065	nan	nan	nan	-340.0936584472657	781.777282714844	-912.5114746093752	-458.1280822753907	970.337585449219	-1031.350830078125	-483.4125061035157	958.1607666015627	-1062.576416015625	-484.1244506835939	944.4072265625002	-1007.839904785156	-326.9562988281251	690.5816040039064	-1263.010009765625	-251.048324584961	654.7187500000001	-1261.764892578125	-215.6250305175782	688.1563720703126	-1252.4052734375	-235.885482788086	596.3709106445314	-1253.101440429688	-122.2779006958008	496.054412841797	-1215.488891601563	-112.5906372070313	495.9634399414064	-1087.22216796875	-162.1744079589844	297.2813415527344	-1103.5283203125	-212.963363647461	256.7580261230469	-1166.433837890625	-186.8653259277344	250.1292572021485	-1129.50439453125	-227.6213836669922	192.2514038085938	-1081.865600585938	-333.3310852050782	103.7930374145508	-1109.8447265625	-398.1645812988282	83.08757781982423	-1048.536376953125	-183.7419891357422	57.48171615600587	-1073.21044921875	-193.7649536132813	39.93442916870118	-1119.617797851563	-301.2644958496094	126.5546112060547	-1027.872924804688	-444.343231201172	502.3659057617189	-839.0667114257815	-403.9475097656251	444.480926513672	-833.4273681640627	-370.8359069824219	443.3949584960939	-838.7644653320315	-439.3042907714845	371.8294067382813	-844.5246582031252	-455.749969482422	340.2437438964844	-851.265075683594	-440.269500732422	303.0180358886719	-977.7770996093752	-577.8969116210939	317.8575439453126	-899.8541259765627	-636.8427124023439	405.784637451172	-880.8682861328127	-650.6257934570314	367.1340026855469	-903.0582275390627	-680.8401489257814	379.6929626464844	-953.1599731445315	-829.739685058594	505.5948486328126	-946.868103027344	-811.0137939453127	477.886199951172	-1033.380249023438	-810.8233032226565	576.2529296875001	-1000.272583007813	-942.947204589844	398.0651855468751	-1044.103515625	-954.8057250976565	400.8461303710939	-1003.804626464844	-979.9995727539065	428.8575134277345	-964.5753173828127	-173.4815521240235	1404.738525390625	-1180.0634765625	
797	3.98	-31.24398612976075	1514.658081054688	-1115.254028320313	-175.0528869628907	1402.020874023438	-1034.2568359375	-221.9396057128907	1307.306030273438	-1113.122314453125	-389.7326965332032	1045.525634765625	-1046.0166015625	-89.00688934326173	1197.808837890625	-1103.700561523438	-90.68103027343751	1246.108032226563	-1270.067993164063	54.52596282958986	1170.107055664063	-1376.721435546875	87.44460296630861	1194.72705078125	-1350.448120117188	121.6579360961914	1155.3515625	-1384.126220703125	187.2873687744141	1155.406860351563	-1381.044921875	182.0326690673828	1084.485595703125	-1350.696411132813	479.7373962402345	1142.703125	-1263.445922851563	486.4550170898439	1147.835083007813	-1343.024169921875	577.6098632812501	1164.648071289063	-1269.988403320313	-82.4901809692383	1265.616088867188	-957.9837646484377	63.17612838745119	1216.68017578125	-839.0467529296877	93.99995422363283	1233.315063476563	-873.475036621094	132.0726470947266	1204.328857421875	-835.7986450195315	197.8523406982422	1197.943237304688	-844.7489013671877	188.7296752929688	1121.706909179688	-865.1328125000002	477.1550598144532	1161.118774414063	-954.7109985351565	491.3813476562501	1181.083251953125	-877.227233886719	570.8558959960939	1183.352416992188	-958.9503173828127	nan	nan	nan	-340.0531311035157	781.4612426757815	-912.5992431640627	-458.0817260742189	970.1309204101565	-1031.2587890625	-484.1603393554689	957.759704589844	-1062.102783203125	-483.9977111816407	944.3972778320315	-1007.790588378906	-326.8202514648438	690.4595336914064	-1262.867919921875	-250.9717254638672	654.6406860351564	-1261.482788085938	-215.5164489746094	688.1135253906251	-1252.102783203125	-235.8268737792969	596.3593139648439	-1252.885498046875	-123.7643814086914	496.6303710937501	-1215.553955078125	-112.6798706054688	495.8252868652345	-1086.8251953125	-162.1373138427735	297.1986694335938	-1103.250732421875	-212.8076782226563	256.7040100097657	-1166.03271484375	-186.6805114746094	250.1756134033204	-1129.113159179688	-227.5738372802735	192.2746887207032	-1081.518798828125	-333.3360290527344	103.781982421875	-1109.715698242188	-398.1665649414064	83.08645629882814	-1048.487182617188	-183.6898803710938	57.49641036987306	-1073.1513671875	-193.6783294677735	39.90962600708009	-1119.564331054688	-301.3133544921876	126.5298538208008	-1027.712158203125	-443.7466735839845	502.1321716308595	-839.1182861328127	-403.1099243164064	444.4101562500001	-833.4383544921877	-370.0517578125001	443.4339904785157	-838.7886962890627	-438.5623779296876	371.5158081054688	-844.6384887695315	-454.7675781250001	339.9527282714844	-851.390808105469	-440.3524169921876	303.4194641113282	-978.4177246093752	-576.9635620117189	317.3119506835938	-899.9191894531252	-635.8793334960939	405.4334411621095	-880.849548339844	-649.8406372070314	366.6231079101563	-903.222595214844	-679.8891601562501	379.3760375976563	-953.1555786132815	-828.9295043945315	505.0237731933595	-946.9039306640627	-809.9602050781252	476.7838439941407	-1033.46435546875	-810.1629638671877	575.6703491210939	-1000.023193359375	-942.134460449219	396.917205810547	-1044.363159179688	-953.3657836914065	400.8692932128907	-1003.726501464844	-978.8692016601565	428.1976623535157	-964.4270629882815	-173.1844177246094	1404.351928710938	-1179.87451171875	
798	3.985	-30.93442153930665	1514.128051757813	-1115.091064453125	-174.7883911132813	1401.656494140625	-1034.06884765625	-221.622299194336	1306.918823242188	-1113.004760742188	-389.6689758300782	1045.243530273438	-1045.93798828125	-88.7938919067383	1197.38720703125	-1103.47265625	-90.60918426513673	1245.825927734375	-1270.01171875	54.73511505126955	1169.682495117188	-1376.443725585938	89.09970092773439	1194.144409179688	-1349.93701171875	121.8774566650391	1155.040405273438	-1383.96044921875	187.5812225341797	1154.87353515625	-1380.92041015625	182.2059173583985	1084.242309570313	-1350.639770507813	480.1031799316407	1142.281982421875	-1263.347412109375	486.8038940429689	1147.4189453125	-1342.88330078125	577.9227294921876	1164.063720703125	-1269.90869140625	-82.38970184326173	1265.142822265625	-957.8718872070315	63.39252090454103	1216.1435546875	-838.8049316406252	94.07197570800783	1232.675659179688	-873.378356933594	132.1710815429688	1203.65380859375	-835.711853027344	198.0675506591797	1197.473754882813	-844.6586914062502	188.8595123291016	1121.066284179688	-865.0405883789065	477.377655029297	1160.353515625	-954.9629516601565	491.6343078613282	1180.2822265625	-877.0979003906252	571.0902099609376	1182.599975585938	-958.7811279296877	nan	nan	nan	-339.9657897949219	781.2642211914065	-912.5874633789065	-458.0491027832032	969.8924560546877	-1031.1689453125	-483.3659057617189	957.759216308594	-1062.248657226563	-484.1229858398439	943.8201293945315	-1007.6806640625	-326.6726379394532	690.3528442382814	-1262.741943359375	-250.8531951904297	654.5025634765626	-1261.221557617188	-215.5312805175782	688.1121215820314	-1251.8779296875	-235.7992858886719	596.4787597656251	-1252.673461914063	-122.3786926269532	496.135955810547	-1214.749755859375	-112.8059463500977	495.8341674804689	-1086.500366210938	-161.9979248046875	297.0867919921876	-1102.756103515625	-212.5051269531251	256.7894592285157	-1165.486572265625	-186.5237274169922	250.1713104248047	-1128.64697265625	-227.520492553711	192.3762817382813	-1081.289184570313	-333.2869262695313	103.8023376464844	-1109.593627929688	-398.1395874023439	83.04251861572267	-1048.428466796875	-183.776107788086	57.52001190185548	-1073.049072265625	-193.5895996093751	39.66574859619141	-1119.526489257813	-301.3629455566407	126.4382858276367	-1027.492431640625	-443.1173706054689	501.8503417968751	-839.2666015625002	-402.4683837890626	444.2913818359376	-833.423278808594	-369.4020385742188	443.143035888672	-839.0023193359377	-437.5939941406251	371.2613525390626	-844.7698974609377	-453.830047607422	339.8092346191407	-851.615417480469	-438.0750427246095	302.3960571289063	-977.7752685546877	-575.9192504882814	316.8986511230469	-900.0384521484377	-635.1878051757814	404.7813720703126	-880.9731445312502	-648.8890380859376	365.8146667480469	-903.332946777344	-679.0772094726564	378.8115234375001	-953.2627563476565	-828.2224731445315	504.0761718750001	-946.8929443359377	-808.4338989257815	475.6466674804689	-1033.208374023438	-809.5537719726565	575.0369873046876	-1000.057861328125	-941.3818969726565	396.0877685546876	-1044.307006835938	-952.5272216796877	399.8093872070314	-1003.317260742188	-978.0743408203127	427.1672973632814	-964.622009277344	-172.8097686767578	1404.219482421875	-1179.653198242188	
